<svg width="419" height="419" viewBox="0 0 419 419" fill="none" xmlns="http://www.w3.org/2000/svg">
<path d="M32.6688 276.452C12.4098 260.127 -2.74308 241.468 0.418167 213.635C3.01982 190.73 20.8883 168.791 38.5998 155.289C107.117 103.057 218.104 83.9389 302.289 93.2789C288.08 95.0549 273.516 95.1784 258.952 97.2264C202.734 105.133 146.698 120.785 100.433 155.027C66.7063 179.99 42.6718 221.824 73.4203 259.963C104.106 296.946 162.674 311.592 208.336 316.807L207.876 317.636L205.742 318.188C161.079 318.15 120.822 315.441 78.0078 299.762L64.3508 327.85C55.8368 328.133 27.8323 329.232 21.2773 326.341C19.1698 325.411 17.3953 323.891 16.6008 321.683C13.6628 313.516 28.6603 285.202 32.6688 276.452Z" fill="white"/>
<path d="M43.6706 295.417C48.8506 294.181 54.0706 297.302 55.4341 302.45C56.7976 307.597 53.8066 312.893 48.6941 314.383C45.2731 315.38 41.5806 314.444 39.0471 311.938C36.5141 309.432 35.5386 305.749 36.4991 302.317C37.4591 298.886 40.2046 296.245 43.6706 295.417Z" fill="black"/>
<path d="M43.2398 297.013C46.1468 296.017 49.3658 296.686 51.6363 298.756C53.9073 300.826 54.8698 303.969 54.1473 306.956C53.4248 309.943 51.1323 312.298 48.1663 313.102C43.7823 314.289 39.2463 311.784 37.9168 307.441C36.5868 303.098 38.9423 298.483 43.2398 297.013Z" fill="white"/>
<path d="M188.759 124.44C206.357 124.904 226.208 124.482 243.924 124.483L353.005 124.468L394.135 124.465C400.292 124.465 411.703 124.142 417.289 124.902C421.379 128.387 416.604 140.522 414.947 144.457C410.242 148.187 402.517 153.103 397.361 156.592L365.474 178.156C363.838 179.32 361.923 180.535 360.233 181.663C335.033 181.949 309.363 181.677 284.103 181.678L138.002 181.652C143.739 168.655 150.23 155.102 156.257 142.216L180.076 142.201C182.348 136.857 186.117 129.783 188.759 124.44Z" fill="white"/>
<path d="M73.9055 194.215L299.843 194.216C295.2 205.7 286.686 218.784 277.705 227.312C267.755 236.76 262.254 238.661 249.351 238.457C235.724 238.452 139.379 237.314 133.799 239.404C131.36 240.317 129.36 241.999 127.764 244.024C121.489 251.982 114.384 271.486 109.502 281.501C87.7865 269.306 66.9905 247.556 67.181 221.507C67.2595 210.749 69.6505 203.673 73.9055 194.215Z" fill="white"/>
<path d="M208.337 316.807L216.863 317.613C213.506 318.248 209.216 318.227 205.743 318.188L207.877 317.636L208.337 316.807Z" fill="white"/>
<path d="M43.0405 309.184V300.456H46.3132C46.9837 300.456 47.5462 300.573 48.0007 300.806C48.4581 301.039 48.8033 301.365 49.0362 301.786C49.272 302.203 49.3899 302.691 49.3899 303.248C49.3899 303.807 49.2706 304.293 49.032 304.705C48.7962 305.114 48.4482 305.431 47.9879 305.655C47.5277 305.877 46.9624 305.988 46.2919 305.988H43.9609V304.675H46.0788C46.4709 304.675 46.7919 304.621 47.0419 304.513C47.2919 304.402 47.4766 304.242 47.5959 304.032C47.718 303.819 47.7791 303.557 47.7791 303.248C47.7791 302.938 47.718 302.674 47.5959 302.455C47.4737 302.233 47.2876 302.066 47.0376 301.952C46.7876 301.836 46.4652 301.777 46.0703 301.777H44.6214V309.184H43.0405ZM47.549 305.229L49.7095 309.184H47.9453L45.8232 305.229H47.549Z" fill="black"/>
</svg>
