<svg width="419" height="419" viewBox="0 0 419 419" fill="none" xmlns="http://www.w3.org/2000/svg">
<path d="M32.7391 276.269C12.4801 259.944 -2.67277 241.285 0.48848 213.451C3.09013 190.546 20.9586 168.607 38.6701 155.105C107.188 102.873 218.175 83.7553 302.359 93.0953C288.151 94.8713 273.587 94.9948 259.023 97.0428C202.804 104.949 146.768 120.602 100.504 154.844C66.7766 179.806 42.7421 221.64 73.4906 259.779C104.176 296.762 162.745 311.409 208.407 316.623L207.946 317.453L205.813 318.004C161.149 317.967 120.893 315.258 78.0781 299.579L64.4211 327.667C55.9071 327.95 27.9026 329.049 21.3476 326.157C19.2401 325.227 17.4656 323.708 16.6711 321.499C13.7331 313.332 28.7306 285.018 32.7391 276.269Z" fill="#040405"/>
<path d="M43.7409 295.234C48.9209 293.998 54.1409 297.119 55.5044 302.266C56.8679 307.414 53.877 312.709 48.7645 314.199C45.3435 315.196 41.6509 314.261 39.1174 311.754C36.5844 309.248 35.609 305.566 36.5695 302.134C37.5295 298.702 40.2749 296.061 43.7409 295.234Z" fill="white"/>
<path d="M43.3101 296.829C46.2171 295.833 49.4361 296.502 51.7066 298.572C53.9776 300.642 54.9401 303.785 54.2176 306.772C53.4951 309.759 51.2026 312.114 48.2366 312.918C43.8526 314.105 39.3166 311.6 37.9871 307.257C36.6571 302.914 39.0126 298.299 43.3101 296.829Z" fill="#040405"/>
<path d="M188.83 124.256C206.428 124.72 226.279 124.299 243.995 124.3L353.076 124.284L394.205 124.281C400.362 124.281 411.773 123.958 417.36 124.719C421.45 128.204 416.674 140.339 415.018 144.274C410.313 148.003 402.588 152.919 397.432 156.409L365.545 177.973C363.908 179.136 361.993 180.352 360.304 181.48C335.103 181.766 309.434 181.494 284.173 181.494L138.072 181.469C143.809 168.471 150.3 154.919 156.328 142.032L180.147 142.017C182.419 136.674 186.187 129.6 188.83 124.256Z" fill="#040405"/>
<path d="M73.9758 194.031L299.913 194.032C295.27 205.517 286.756 218.601 277.775 227.128C267.825 236.577 262.325 238.477 249.422 238.274C235.794 238.269 139.45 237.13 133.87 239.22C131.431 240.134 129.431 241.816 127.834 243.84C121.559 251.798 114.455 271.303 109.573 281.318C87.8568 269.122 67.0608 247.373 67.2513 221.323C67.3298 210.566 69.7208 203.489 73.9758 194.031Z" fill="#040405"/>
<path d="M208.407 316.623L216.933 317.429C213.576 318.064 209.286 318.044 205.813 318.004L207.947 317.453L208.407 316.623Z" fill="black"/>
<path d="M43.1108 309V300.273H46.3835C47.054 300.273 47.6165 300.389 48.071 300.622C48.5284 300.855 48.8736 301.182 49.1065 301.602C49.3423 302.02 49.4602 302.507 49.4602 303.064C49.4602 303.624 49.3409 304.109 49.1023 304.521C48.8665 304.93 48.5185 305.247 48.0582 305.472C47.598 305.693 47.0327 305.804 46.3622 305.804H44.0312V304.491H46.1491C46.5412 304.491 46.8622 304.437 47.1122 304.33C47.3622 304.219 47.5469 304.058 47.6662 303.848C47.7884 303.635 47.8494 303.374 47.8494 303.064C47.8494 302.754 47.7884 302.49 47.6662 302.271C47.544 302.05 47.358 301.882 47.108 301.768C46.858 301.652 46.5355 301.594 46.1406 301.594H44.6918V309H43.1108ZM47.6193 305.045L49.7798 309H48.0156L45.8935 305.045H47.6193Z" fill="white"/>
</svg>
